<svg id="visual" viewBox="0 0 900 600" width="900" height="600" xmlns="http://www.w3.org/2000/svg" xmlns:xlink="http://www.w3.org/1999/xlink" version="1.1"><rect x="0" y="0" width="900" height="600" fill="#001220"></rect><path d="M261 600L278 585.7C295 571.3 329 542.7 355.8 514.2C382.7 485.7 402.3 457.3 418.5 428.8C434.7 400.3 447.3 371.7 428 343C408.7 314.3 357.3 285.7 322.3 257C287.3 228.3 268.7 199.7 269.8 171.2C271 142.7 292 114.3 323.2 85.8C354.3 57.3 395.7 28.7 416.3 14.3L437 0L900 0L900 14.3C900 28.7 900 57.3 900 85.8C900 114.3 900 142.7 900 171.2C900 199.7 900 228.3 900 257C900 285.7 900 314.3 900 343C900 371.7 900 400.3 900 428.8C900 457.3 900 485.7 900 514.2C900 542.7 900 571.3 900 585.7L900 600Z" fill="#24a9c7"></path><path d="M429 600L428.7 585.7C428.3 571.3 427.7 542.7 444 514.2C460.3 485.7 493.7 457.3 499.7 428.8C505.7 400.3 484.3 371.7 459.2 343C434 314.3 405 285.7 418.2 257C431.3 228.3 486.7 199.7 516.5 171.2C546.3 142.7 550.7 114.3 531.5 85.8C512.3 57.3 469.7 28.7 448.3 14.3L427 0L900 0L900 14.3C900 28.7 900 57.3 900 85.8C900 114.3 900 142.7 900 171.2C900 199.7 900 228.3 900 257C900 285.7 900 314.3 900 343C900 371.7 900 400.3 900 428.8C900 457.3 900 485.7 900 514.2C900 542.7 900 571.3 900 585.7L900 600Z" fill="#0067bd"></path><path d="M766 600L741 585.7C716 571.3 666 542.7 638.8 514.2C611.7 485.7 607.3 457.3 612 428.8C616.7 400.3 630.3 371.7 654.8 343C679.3 314.3 714.7 285.7 738.7 257C762.7 228.3 775.3 199.7 775.5 171.2C775.7 142.7 763.3 114.3 746.3 85.8C729.3 57.3 707.7 28.7 696.8 14.3L686 0L900 0L900 14.3C900 28.7 900 57.3 900 85.8C900 114.3 900 142.7 900 171.2C900 199.7 900 228.3 900 257C900 285.7 900 314.3 900 343C900 371.7 900 400.3 900 428.8C900 457.3 900 485.7 900 514.2C900 542.7 900 571.3 900 585.7L900 600Z" fill="#170b8a"></path></svg>